<?xml version="1.0" encoding="UTF-8"?>
<svg version="1.1" xmlns="http://www.w3.org/2000/svg" width="2000" height="1500">
<path d="M0 0 C660 0 1320 0 2000 0 C2000 495 2000 990 2000 1500 C1340 1500 680 1500 0 1500 C0 1005 0 510 0 0 Z " fill="#FEFEFE" transform="translate(0,0)"/>
<path d="M0 0 C47.16928613 -0.11449142 94.33855753 -0.20257228 141.50795526 -0.25532665 C147.07911559 -0.26158004 152.65027563 -0.26805166 158.22143555 -0.2746582 C159.88508354 -0.27662553 159.88508354 -0.27662553 161.58234058 -0.2786326 C179.53114479 -0.30037796 197.47986878 -0.33979473 215.42862543 -0.38576398 C233.85127536 -0.43255277 252.27388333 -0.46030053 270.69659024 -0.47044247 C282.06068901 -0.47729659 293.42456099 -0.49892998 304.78858993 -0.53958233 C312.58563319 -0.56605057 320.38255953 -0.57399174 328.17964443 -0.56750689 C332.67547697 -0.56431036 337.17091374 -0.56914503 341.66667557 -0.59602737 C345.78969047 -0.62049983 349.91204642 -0.62149787 354.03509275 -0.60449447 C355.51984978 -0.60239547 357.00464927 -0.60861946 358.48932376 -0.62441591 C373.46704782 -0.77439627 384.57248873 3.37510885 395.625 13.375 C406.35571968 25.23526912 410.31674344 36.17128575 410.26742554 52.09320068 C410.27195665 53.17794308 410.27648776 54.26268548 410.28115618 55.38029885 C410.29376886 58.9980426 410.29218182 62.6156352 410.29052734 66.23339844 C410.29651453 68.83429151 410.30332052 71.43518281 410.31088257 74.03607178 C410.32744837 80.357872 410.3329901 86.67963492 410.33410732 93.00145504 C410.33505989 98.14367813 410.33918055 103.28588899 410.34550858 108.42810822 C410.36310882 123.02887003 410.37234934 137.62960252 410.37084763 152.23037502 C410.37076772 153.01641181 410.3706878 153.8024486 410.37060547 154.61230469 C410.37052371 155.39930867 410.37044195 156.18631265 410.37035771 156.99716523 C410.36954512 169.74631821 410.38867903 182.49535296 410.4168822 195.24447176 C410.44565746 208.35636175 410.45941995 221.46819416 410.45769465 234.58011651 C410.45703236 241.93295556 410.46245393 249.28567065 410.48405075 256.63848114 C410.50424058 263.55622365 410.50354156 270.47370098 410.48901749 277.3914566 C410.48693118 279.9241728 410.49161954 282.45690545 410.5037384 284.98959351 C410.58954924 304.17184034 409.5041415 319.83043894 396 334.6875 C383.7488592 346.35919495 369.02803174 348.30903851 352.83311462 348.24050903 C351.29504547 348.24138211 349.75697661 348.24313497 348.21890932 348.24568737 C344.00922115 348.25014484 339.79963536 348.24217929 335.58996022 348.23213124 C331.04406377 348.22347592 326.49817288 348.22641838 321.95227051 348.22793579 C314.08174718 348.22898333 306.21125708 348.22272047 298.34074211 348.21146011 C286.96137186 348.19519026 275.58201764 348.18999558 264.20263702 348.18748413 C245.7393303 348.18310936 227.27604126 348.16980617 208.81274414 348.15087891 C190.87980233 348.13251447 172.94686533 348.11836072 155.01391602 348.10986328 C153.35519974 348.10907511 153.35519974 348.10907511 151.66297405 348.10827102 C146.11531936 348.1056609 140.56766463 348.10313349 135.02000988 348.10064721 C89.01332766 348.0799215 43.00666475 348.0447019 -3 348 C5.02173255 339.94632176 13.36651747 332.43498595 22.21875 325.3125 C25.24019188 322.8002899 28.12441773 320.17599173 31 317.5 C35.58760113 313.23081848 40.33442728 309.24241483 45.21875 305.3125 C48.24019336 302.80028867 51.12440078 300.17597543 54 297.5 C58.61001639 293.2104224 63.37783236 289.19589103 68.28515625 285.24609375 C71.10673495 282.9116941 73.80590712 280.48009402 76.5 278 C80.05670244 274.72581577 83.67161811 271.59357567 87.4375 268.5625 C91.97316443 264.90428985 96.2570117 261.05257035 100.51928711 257.08618164 C104.60661006 253.30509442 108.88043244 249.80310034 113.21875 246.3125 C116.24019336 243.80028867 119.12440078 241.17597543 122 238.5 C126.61001639 234.2104224 131.37783236 230.19589103 136.28515625 226.24609375 C139.10673495 223.9116941 141.80590712 221.48009402 144.5 219 C148.05670244 215.72581577 151.67161811 212.59357567 155.4375 209.5625 C159.43223986 206.34056899 163.24554349 202.99344505 167 199.5 C171.5985739 195.22112097 176.3521622 191.21412326 181.25 187.27734375 C185.22860126 183.98256458 189.00263567 180.4853545 192.78515625 176.96875 C195 175 195 175 197 174 C195.45427224 170.18371168 193.11228755 168.02974257 190.0625 165.3125 C189.57523438 164.87679687 189.08796875 164.44109375 188.5859375 163.9921875 C184.41293563 160.29119613 180.09059833 156.78332365 175.75 153.28125 C171.96094593 150.13805742 168.36730648 146.79841405 164.74609375 143.46484375 C162.08124834 141.07292703 159.35168175 138.80745116 156.5625 136.5625 C152.02763839 132.90493736 147.74463817 129.05382973 143.48291016 125.08837891 C139.37220724 121.28601193 135.07724416 117.75729408 130.71484375 114.24609375 C126.93432714 111.11832821 123.35519125 107.78726117 119.74609375 104.46484375 C117.08124834 102.07292703 114.35168175 99.80745116 111.5625 97.5625 C107.02683557 93.90428985 102.7429883 90.05257035 98.48071289 86.08618164 C95.24806025 83.09573 91.93303234 80.26220993 88.5 77.5 C84.52370574 74.30068278 80.73331702 70.97415055 77 67.5 C72.38998361 63.2104224 67.62216764 59.19589103 62.71484375 55.24609375 C58.93432714 52.11832821 55.35519125 48.78726117 51.74609375 45.46484375 C49.08124834 43.07292703 46.35168175 40.80745116 43.5625 38.5625 C39.02763839 34.90493736 34.74463817 31.05382973 30.48291016 27.08837891 C26.38047055 23.29365543 22.09382631 19.77216294 17.7421875 16.265625 C11.55125599 11.15061036 5.6628776 5.69128544 0 0 Z " fill="#6676F1" transform="translate(634,577)"/>
<path d="M0 0 C2.19699411 -0.00805582 4.39397976 -0.01906967 6.59094238 -0.0333252 C43.27996999 -0.24662122 80.54381883 5.53090561 108.65826416 31.17523193 C109.42396729 31.85972412 110.18967041 32.54421631 110.97857666 33.24945068 C128.13120463 49.41595196 140.0352082 73.60649343 140.89654541 97.30804443 C141.50850961 130.34580414 131.83125662 155.42596432 108.90826416 179.23773193 C89.57812062 198.17523193 89.57812062 198.17523193 82.65826416 198.17523193 C88.04349092 205.68145582 93.59569848 213.03902029 99.24713135 220.34613037 C101.83263143 223.69743948 104.40094213 227.06189545 106.97076416 230.42523193 C107.51821289 231.14146729 108.06566162 231.85770264 108.62969971 232.59564209 C109.74817041 234.05897323 110.86657827 235.5223524 111.98492432 236.98577881 C114.7085968 240.54952185 117.43348079 244.11233824 120.15826416 247.67523193 C121.24160354 249.09189398 122.32493687 250.50856065 123.40826416 251.92523193 C123.94451416 252.62648193 124.48076416 253.32773193 125.03326416 254.05023193 C129.90826415 260.42523192 129.90826415 260.42523192 131.53399658 262.5512085 C132.61486433 263.96463844 133.69575617 265.37804997 134.77667236 266.79144287 C137.52292921 270.38247895 140.26873719 273.97385673 143.01373291 277.56585693 C143.56649902 278.289021 144.11926514 279.01218506 144.68878174 279.75726318 C145.78133682 281.18674442 146.87362806 282.61642735 147.96563721 284.04632568 C150.53224665 287.40493322 153.10580472 290.75767345 155.69732666 294.09710693 C156.16694824 294.70328857 156.63656982 295.30947021 157.12042236 295.934021 C158.38761182 297.56801036 159.65760592 299.19982357 160.92779541 300.83148193 C162.65826416 303.17523193 162.65826416 303.17523193 162.65826416 304.17523193 C143.77026221 304.80805467 124.88442867 305.28304279 105.98799896 305.57416058 C97.21187076 305.71298128 88.44235206 305.9018758 79.67047119 306.21209717 C72.01744381 306.48261899 64.36919967 306.65569981 56.71152449 306.71562129 C52.6595659 306.75063546 48.62127639 306.8317064 44.57374573 307.02994347 C24.17426727 307.99101577 24.17426727 307.99101577 15.65826416 304.17523193 C8.50865405 297.66143383 4.65734435 289.10532662 0.99387169 280.29335022 C-0.68145493 276.38212147 -2.72442239 272.97050467 -5.02532959 269.39788818 C-5.98342529 267.82297607 -5.98342529 267.82297607 -6.96087646 266.21624756 C-7.56093506 265.2333374 -8.16099365 264.25042725 -8.77923584 263.23773193 C-10.02803006 261.18700932 -11.27672137 259.13622404 -12.52532959 257.08538818 C-14.90945068 253.16986084 -14.90945068 253.16986084 -17.34173584 249.17523193 C-22.95173584 239.93523193 -28.56173584 230.69523193 -34.34173584 221.17523193 C-34.67173584 248.56523193 -35.00173584 275.95523193 -35.34173584 304.17523193 C-75.27173584 304.17523193 -115.20173584 304.17523193 -156.34173584 304.17523193 C-156.34173584 206.49523193 -156.34173584 108.81523193 -156.34173584 8.17523193 C-152.57994811 7.42287439 -149.26227261 6.96036954 -145.47039795 6.72625732 C-144.30437042 6.65263977 -143.1383429 6.57902222 -141.9369812 6.50317383 C-140.0471199 6.38918243 -140.0471199 6.38918243 -138.11907959 6.27288818 C-136.80245331 6.19085144 -135.48582703 6.1088147 -134.12930298 6.02429199 C-130.57972968 5.80336718 -127.02990009 5.58686798 -123.47998428 5.37152481 C-120.54095002 5.19284839 -117.6020517 5.01198702 -114.66314602 4.83121014 C-105.55648151 4.27131675 -96.4492311 3.72142553 -87.34173584 3.17523193 C-85.75685364 3.07988159 -85.75685364 3.07988159 -84.13995361 2.98260498 C-73.20966324 2.32601674 -62.27864661 1.71134069 -51.34173584 1.17523193 C-50.19849854 1.11738525 -49.05526123 1.05953857 -47.87738037 0.99993896 C-31.92445243 0.22225392 -15.96936823 0.05512152 0 0 Z " fill="#6454F0" transform="translate(1572.3417358398438,561.8247680664063)"/>
<path d="M0 0 C0.89976562 -0.00349457 1.79953125 -0.00698914 2.7265625 -0.0105896 C21.02079401 -0.04996653 38.84818921 1.62193569 56.83813477 4.91699219 C59.04488716 5.32071199 61.25362074 5.7118762 63.46289062 6.1015625 C69.8281232 7.24146405 75.95140074 8.53075735 82.1875 10.3125 C82.1875 38.3625 82.1875 66.4125 82.1875 95.3125 C73.18760015 94.18751252 73.18760015 94.18751252 70.16503906 93.67993164 C69.48362854 93.56633804 68.80221802 93.45274445 68.10015869 93.33570862 C67.39163757 93.21590134 66.68311646 93.09609406 65.953125 92.97265625 C65.19384705 92.84563828 64.43456909 92.7186203 63.65228271 92.5877533 C61.2470939 92.1850423 58.84229149 91.78007613 56.4375 91.375 C54.84117137 91.10726955 53.24481738 90.83969029 51.6484375 90.57226562 C50.86943085 90.44156677 50.09042419 90.31086792 49.28781128 90.1762085 C47.73549747 89.91620106 46.18302785 89.65712207 44.63040161 89.39898682 C41.36224156 88.85421253 38.1004661 88.29625977 34.84326172 87.68847656 C27.47063203 86.33384858 20.30343393 85.94618011 12.8125 85.9375 C11.67683594 85.91300781 10.54117187 85.88851562 9.37109375 85.86328125 C3.06844702 85.84111485 -1.13377594 85.86492245 -5.8125 90.3125 C-7.4083633 93.56188299 -7.4083633 93.56188299 -6.8125 97.3125 C-2.26138415 105.0736883 5.2221779 108.27774548 13.125 111.8125 C14.34147733 112.37426067 15.55696765 112.93816339 16.77148438 113.50415039 C19.15796938 114.6147778 21.54788452 115.71636015 23.94091797 116.81298828 C30.43905437 119.81430831 36.818178 123.04869358 43.1875 126.3125 C44.68216797 127.07240234 44.68216797 127.07240234 46.20703125 127.84765625 C53.00762671 131.41440212 59.12509246 135.60659802 65.1875 140.3125 C66.20328125 141.09882812 67.2190625 141.88515625 68.265625 142.6953125 C85.77711608 156.7309046 97.00876718 176.1806443 99.91015625 198.53515625 C100.85631303 211.42154506 101.06119154 224.66165104 98.1875 237.3125 C97.94257812 238.42367187 97.69765625 239.53484375 97.4453125 240.6796875 C91.88884584 262.75803734 77.50274025 280.80992426 58.07275391 292.54443359 C44.76643913 300.24031884 31.12799376 305.04203306 16.1875 308.3125 C15.08728516 308.56241699 15.08728516 308.56241699 13.96484375 308.81738281 C-20.26173191 316.21069053 -69.87709254 315.23897067 -102.8125 303.3125 C-104.11569723 302.94312733 -105.42199299 302.58458973 -106.73046875 302.234375 C-115.28700188 299.90503015 -123.44178924 297.46293518 -130.8125 292.3125 C-132.37129555 289.19490889 -131.94202133 285.88735514 -131.92602539 282.46630859 C-131.92617142 281.65647018 -131.92631744 280.84663177 -131.9264679 280.01225281 C-131.92576977 277.32845404 -131.91798204 274.64472419 -131.91015625 271.9609375 C-131.90829171 270.10291583 -131.90686798 268.24489367 -131.90586853 266.38687134 C-131.90204615 261.49107512 -131.89221823 256.59530845 -131.88116455 251.69952393 C-131.87094444 246.70593669 -131.86636962 241.71234468 -131.86132812 236.71875 C-131.85059573 226.91665366 -131.83352264 217.11457929 -131.8125 207.3125 C-130.37975643 207.45581561 -128.94746646 207.60367036 -127.51538086 207.75341797 C-126.31890175 207.87618607 -126.31890175 207.87618607 -125.09825134 208.00143433 C-122.01634946 208.42084735 -119.28869067 209.36046869 -116.375 210.4375 C-77.3147563 224.71582768 -77.3147563 224.71582768 -36.8125 222.9375 C-33.73911047 221.64360623 -33.73911047 221.64360623 -32.8125 219.3125 C-32.49910811 216.84888359 -32.49910811 216.84888359 -32.4375 214.0625 C-32.36402344 212.66257812 -32.36402344 212.66257812 -32.2890625 211.234375 C-33.22165246 206.02857433 -36.63255837 203.21080947 -40.66015625 200.14453125 C-42.25150391 199.14486328 -42.25150391 199.14486328 -43.875 198.125 C-44.76977051 197.56208252 -44.76977051 197.56208252 -45.68261719 196.98779297 C-51.69792504 193.26511763 -57.91924836 189.91890541 -64.1315918 186.5402832 C-91.35550512 171.68501957 -120.50748037 153.02443835 -129.94921875 121.51953125 C-130.69645585 118.11869116 -131.32128629 114.75911524 -131.8125 111.3125 C-132.08513672 109.45431641 -132.08513672 109.45431641 -132.36328125 107.55859375 C-135.54473301 81.17051666 -130.23939336 59.03273581 -114.02734375 37.99609375 C-100.19978742 21.29188267 -78.30355482 11.64191447 -57.8125 6.3125 C-56.98459961 6.07474854 -56.15669922 5.83699707 -55.30371094 5.59204102 C-37.18091672 0.43078957 -18.71608259 0.02326965 0 0 Z " fill="#6BB1F3" transform="translate(1292.8125,561.6875)"/>
<path d="M0 0 C88.11 0 176.22 0 267 0 C260.15596576 6.84403424 253.10005432 13.36164218 245.5625 19.4375 C241.56776014 22.65943101 237.75445651 26.00655495 234 29.5 C229.38995664 33.78955113 224.62217044 37.80410672 219.71484375 41.75390625 C216.89326505 44.0883059 214.19409288 46.51990598 211.5 49 C207.05272888 53.09351091 202.45282537 56.92442499 197.75 60.71875 C193.96094593 63.86194258 190.36730648 67.20158595 186.74609375 70.53515625 C184.08124834 72.92707297 181.35168175 75.19254884 178.5625 77.4375 C174.56776014 80.65943101 170.75445651 84.00655495 167 87.5 C162.38995664 91.78955113 157.62217044 95.80410672 152.71484375 99.75390625 C149.89326505 102.0883059 147.19409288 104.51990598 144.5 107 C139.99968563 111.13977416 135.36493451 115.05671695 130.60546875 118.89453125 C127.91820289 120.99952674 127.91820289 120.99952674 125.33927917 123.59313965 C121.80805747 126.51944937 118.42524057 126.69648529 113.96606445 126.61523438 C113.18306473 126.62078339 112.400065 126.6263324 111.59333801 126.63204956 C109.01602086 126.64381684 106.44047442 126.61959107 103.86328125 126.59375 C102.05974914 126.59203716 100.25621455 126.59210634 98.4526825 126.59387207 C94.67402285 126.59222016 90.89595738 126.5735547 87.11743164 126.54199219 C82.30040041 126.50245764 77.48415187 126.49793141 72.66698933 126.50545502 C68.94090245 126.5085429 65.21498778 126.49633762 61.4889431 126.47932434 C59.71454132 126.47234443 57.94012003 126.46916365 56.16570473 126.47001648 C38.97279313 126.45746636 26.39512004 123.90178722 13.25 111.9375 C-13.11402024 84.29551109 0 26.09308002 0 0 Z " fill="#6CCCF4" transform="translate(352,799)"/>
<path d="M0 0 C1.25702477 -0.02913231 1.25702477 -0.02913231 2.53944397 -0.05885315 C10.27549826 -0.22765264 18.01289158 -0.32439045 25.75036526 -0.39992237 C30.94005764 -0.45123772 36.12707783 -0.52556129 41.31542969 -0.65625 C46.34539519 -0.78242791 51.37295464 -0.84838481 56.40440559 -0.87351036 C58.3114704 -0.89301523 60.21845064 -0.93319323 62.12460136 -0.99537086 C78.55674688 -1.50627385 78.55674688 -1.50627385 85.42882633 4.45585346 C87.50598399 6.49204201 89.43818281 8.61692268 91.33004951 10.82520485 C93.43049984 13.13620844 95.84499624 15.00901646 98.29907227 16.92895508 C102.0462844 19.93758627 105.63856457 23.04888425 109.17407227 26.30395508 C112.73077471 29.57813931 116.34569037 32.71037941 120.11157227 35.74145508 C124.64643388 39.39901772 128.92943409 43.25012535 133.19116211 47.21557617 C137.30186503 51.01794314 141.59682811 54.546661 145.95922852 58.05786133 C149.73974513 61.18562687 153.31888101 64.51669391 156.92797852 67.83911133 C159.59282393 70.23102805 162.32239052 72.49650391 165.11157227 74.74145508 C169.64643388 78.39901772 173.92943409 82.25012535 178.19116211 86.21557617 C182.30186503 90.01794314 186.59682811 93.546661 190.95922852 97.05786133 C194.72844257 100.17627583 198.29781827 103.49568631 201.89282227 106.81176758 C205.59462626 110.12883351 209.45793133 113.22089056 213.36157227 116.29614258 C215.67407227 118.30395508 215.67407227 118.30395508 218.67407227 122.30395508 C131.22407227 122.30395508 43.77407227 122.30395508 -46.32592773 122.30395508 C-46.32592773 29.77454331 -46.32592773 29.77454331 -34.32592773 15.30395508 C-24.78164093 5.7757361 -13.39765482 0.25938566 0 0 Z " fill="#6CCCF4" transform="translate(398.325927734375,576.696044921875)"/>
<path d="M0 0 C0.78503906 0.25652344 1.57007813 0.51304687 2.37890625 0.77734375 C8.9026264 3.09799535 13.82903261 6.43793275 19 11 C19.6909375 11.59683594 20.381875 12.19367187 21.09375 12.80859375 C30.34971372 21.37036019 36.63938063 32.77505205 37.27734375 45.42578125 C37.76428724 61.91748435 34.70795758 75.4334489 23.75 88.25 C16.62050632 95.7735863 8.81963272 100.74857419 -1 104 C-2.216875 104.4125 -3.43375 104.825 -4.6875 105.25 C-18.75030833 108.40347823 -33.86164412 105.58174565 -46 98 C-58.5181696 89.24421655 -67.3425558 77.15982045 -70.64453125 62.05078125 C-72.62063441 45.09103878 -69.53298648 31.06621684 -59 17.40625 C-44.89127368 0.67733165 -21.14947797 -7.29292344 0 0 Z " fill="#FEFEFE" transform="translate(940,699)"/>
<path d="M0 0 C6.32973526 5.0913088 7.96999931 9.41029882 8.875 17.3125 C10.20692418 32.08475003 5.28392446 44.34063813 -4.05078125 55.64453125 C-18.11107977 70.76398597 -38.90375875 79.90541958 -58.125 86.3125 C-58.125 62.2225 -58.125 38.1325 -58.125 13.3125 C-10.96145766 -5.84768908 -10.96145766 -5.84768908 0 0 Z " fill="#FEFEFE" transform="translate(1594.125,639.6875)"/>
</svg>
